# xmcd
#
# Track frame offsets:
# 150
# 26132
# 50663
# 81029
# 107968
# 135422
# 168284
# 195403
# 218293
#
# Disc length: 3054 seconds
#
#
# Revision: 0
# Processed by: cddbd v1.5.1PL0 Copyright (c) Steve Scherf et al.
# Submitted via: FreeRIP 2.941 
#
DISCID=6f0bec09
DTITLE=Urban Noises - Gray Days
DYEAR=2002
DGENRE=Blues
TTITLE0=Sorrow in my heart
TTITLE1=Camelized guru
TTITLE2=Gray days
TTITLE3=Once upon a time in the east
TTITLE4=Zen legend
TTITLE5=Iron cutter grind
TTITLE6=Miles away
TTITLE7=Clock shuffle
TTITLE8=Jazzy bluesy funker
EXTD=
EXTT0=
EXTT1=
EXTT2=
EXTT3=
EXTT4=
EXTT5=
EXTT6=
EXTT7=
EXTT8=
PLAYORDER=
